<?xml version="1.0" encoding="UTF-8"?>
<svg xmlns="http://www.w3.org/2000/svg" xmlns:xlink="http://www.w3.org/1999/xlink" width="32px" height="32px" viewBox="0 0 32 32" version="1.1" style="background: transparent;">
<g id="surface1">
<path style=" stroke:none;fill-rule:nonzero;fill:rgb(98.823529%,98.823529%,98.823529%);fill-opacity:1;" d="M 0 0 C 10.558594 0 21.121094 0 32 0 C 32 10.558594 32 21.121094 32 32 C 21.441406 32 10.878906 32 0 32 C 0 21.441406 0 10.878906 0 0 Z M 0 0 "/>
<path style=" stroke:none;fill-rule:nonzero;fill:rgb(2.352941%,53.725493%,83.137256%);fill-opacity:1;" d="M 8.210938 9.429688 C 8.285156 9.429688 8.359375 9.429688 8.4375 9.429688 C 8.683594 9.429688 8.933594 9.429688 9.179688 9.429688 C 9.359375 9.429688 9.539062 9.429688 9.714844 9.429688 C 10.148438 9.425781 10.582031 9.425781 11.015625 9.425781 C 11.367188 9.425781 11.71875 9.425781 12.070312 9.425781 C 12.148438 9.425781 12.148438 9.425781 12.222656 9.425781 C 12.328125 9.425781 12.429688 9.425781 12.53125 9.425781 C 13.484375 9.425781 14.441406 9.425781 15.398438 9.425781 C 16.269531 9.425781 17.144531 9.425781 18.019531 9.425781 C 18.917969 9.421875 19.8125 9.421875 20.710938 9.421875 C 21.214844 9.421875 21.71875 9.421875 22.222656 9.421875 C 22.695312 9.421875 23.171875 9.421875 23.644531 9.421875 C 23.816406 9.421875 23.992188 9.421875 24.164062 9.421875 C 24.402344 9.421875 24.640625 9.421875 24.878906 9.421875 C 24.980469 9.421875 24.980469 9.421875 25.085938 9.421875 C 25.585938 9.425781 26.0625 9.523438 26.4375 9.875 C 26.484375 9.925781 26.484375 9.925781 26.53125 9.976562 C 26.429688 10.222656 26.332031 10.328125 26.105469 10.460938 C 26.046875 10.492188 25.992188 10.527344 25.933594 10.5625 C 25.847656 10.613281 25.847656 10.613281 25.753906 10.664062 C 25.632812 10.738281 25.511719 10.8125 25.386719 10.882812 C 25.328125 10.917969 25.269531 10.953125 25.210938 10.988281 C 24.96875 11.136719 24.738281 11.296875 24.507812 11.464844 C 24.300781 11.613281 24.09375 11.753906 23.882812 11.898438 C 22.835938 12.613281 21.824219 13.378906 20.828125 14.160156 C 20.785156 14.195312 20.742188 14.230469 20.695312 14.265625 C 20.367188 14.523438 20.046875 14.785156 19.722656 15.050781 C 19.585938 15.148438 19.585938 15.148438 19.4375 15.148438 C 19.4375 15.199219 19.4375 15.246094 19.4375 15.296875 C 19.316406 15.40625 19.191406 15.511719 19.066406 15.613281 C 18.957031 15.703125 18.957031 15.703125 18.84375 15.792969 C 18.621094 15.964844 18.398438 16.132812 18.167969 16.296875 C 17.984375 16.445312 17.828125 16.609375 17.664062 16.777344 C 17.515625 16.921875 17.367188 17.066406 17.21875 17.210938 C 17.183594 17.246094 17.144531 17.285156 17.105469 17.324219 C 16.832031 17.585938 16.832031 17.585938 16.601562 17.597656 C 16.375 17.503906 16.183594 17.378906 15.980469 17.246094 C 15.691406 17.070312 15.382812 16.945312 15.070312 16.816406 C 15.003906 16.789062 14.933594 16.761719 14.863281 16.730469 C 14.726562 16.671875 14.589844 16.617188 14.453125 16.558594 C 14.289062 16.492188 14.121094 16.421875 13.957031 16.347656 C 12.859375 15.890625 11.699219 15.621094 10.511719 15.539062 C 10.347656 15.519531 10.347656 15.519531 10.199219 15.445312 C 10.136719 16.339844 10.152344 16.929688 10.714844 17.664062 C 10.464844 17.871094 10.214844 18.042969 9.929688 18.203125 C 9.546875 18.421875 9.171875 18.65625 8.800781 18.898438 C 8.648438 18.992188 8.648438 18.992188 8.574219 18.992188 C 8.574219 16.992188 8.574219 14.992188 8.574219 12.933594 C 8.449219 12.910156 8.328125 12.882812 8.203125 12.859375 C 8.070312 12.742188 8.070312 12.742188 7.980469 12.636719 C 7.816406 12.710938 7.695312 12.773438 7.570312 12.90625 C 7.464844 13.007812 7.464844 13.007812 7.242188 13.007812 C 7.242188 13.089844 7.246094 13.175781 7.246094 13.261719 C 7.261719 14.054688 7.273438 14.847656 7.28125 15.640625 C 7.285156 16.046875 7.289062 16.453125 7.296875 16.863281 C 7.304688 17.253906 7.3125 17.648438 7.3125 18.042969 C 7.3125 18.191406 7.316406 18.34375 7.320312 18.492188 C 7.351562 19.664062 7.351562 19.664062 7.085938 20.011719 C 6.894531 20.148438 6.722656 20.238281 6.503906 20.324219 C 6.378906 20.371094 6.257812 20.421875 6.132812 20.472656 C 6.128906 19.21875 6.121094 17.96875 6.117188 16.714844 C 6.117188 16.132812 6.113281 15.550781 6.113281 14.972656 C 6.109375 14.464844 6.105469 13.957031 6.105469 13.449219 C 6.105469 13.183594 6.105469 12.914062 6.101562 12.644531 C 6.101562 12.34375 6.101562 12.046875 6.101562 11.746094 C 6.097656 11.65625 6.097656 11.570312 6.097656 11.476562 C 6.101562 10.886719 6.191406 10.511719 6.554688 10.035156 C 6.59375 9.996094 6.632812 9.957031 6.675781 9.917969 C 6.714844 9.875 6.753906 9.835938 6.792969 9.796875 C 7.246094 9.457031 7.664062 9.425781 8.210938 9.429688 Z M 8.210938 9.429688 "/>
<path style=" stroke:none;fill-rule:nonzero;fill:rgb(5.098039%,20.392157%,34.901962%);fill-opacity:1;" d="M 27.046875 14.632812 C 27.054688 15.777344 27.058594 16.917969 27.058594 18.0625 C 27.0625 18.59375 27.0625 19.125 27.066406 19.65625 C 27.066406 20.121094 27.070312 20.582031 27.070312 21.046875 C 27.070312 21.289062 27.070312 21.535156 27.070312 21.78125 C 27.074219 22.054688 27.074219 22.328125 27.074219 22.601562 C 27.074219 22.683594 27.074219 22.765625 27.074219 22.847656 C 27.074219 23.480469 27.003906 24.117188 26.558594 24.601562 C 26.515625 24.652344 26.46875 24.703125 26.421875 24.757812 C 25.890625 25.179688 25.371094 25.242188 24.707031 25.234375 C 24.625 25.234375 24.539062 25.234375 24.453125 25.234375 C 24.179688 25.234375 23.90625 25.230469 23.628906 25.230469 C 23.4375 25.230469 23.246094 25.230469 23.054688 25.230469 C 22.605469 25.226562 22.15625 25.226562 21.703125 25.222656 C 21.191406 25.21875 20.675781 25.21875 20.164062 25.214844 C 19.109375 25.210938 18.054688 25.207031 16.996094 25.199219 C 17.027344 25.164062 17.058594 25.128906 17.089844 25.09375 C 17.128906 25.046875 17.171875 25 17.210938 24.953125 C 17.25 24.90625 17.289062 24.859375 17.332031 24.8125 C 17.410156 24.71875 17.492188 24.625 17.570312 24.53125 C 17.984375 24.046875 18.4375 23.609375 18.890625 23.164062 C 19.222656 22.835938 19.539062 22.503906 19.84375 22.148438 C 19.984375 21.988281 20.132812 21.839844 20.285156 21.691406 C 20.542969 21.4375 20.777344 21.179688 21.011719 20.90625 C 21.136719 20.769531 21.261719 20.636719 21.394531 20.507812 C 21.742188 20.167969 22.054688 19.796875 22.363281 19.421875 C 22.570312 19.179688 22.789062 18.964844 23.015625 18.742188 C 23.417969 18.34375 23.8125 17.949219 24.179688 17.519531 C 24.414062 17.257812 24.664062 17.015625 24.917969 16.769531 C 25.074219 16.609375 25.222656 16.445312 25.367188 16.277344 C 25.675781 15.921875 26.003906 15.59375 26.335938 15.261719 C 26.398438 15.199219 26.457031 15.140625 26.519531 15.078125 C 26.578125 15.019531 26.636719 14.960938 26.695312 14.902344 C 26.746094 14.851562 26.796875 14.800781 26.851562 14.746094 C 26.972656 14.632812 26.972656 14.632812 27.046875 14.632812 Z M 27.046875 14.632812 "/>
<path style=" stroke:none;fill-rule:nonzero;fill:rgb(13.725491%,71.764708%,44.705883%);fill-opacity:1;" d="M 30.523438 9.089844 C 30.523438 9.3125 30.523438 9.3125 30.328125 9.523438 C 30.246094 9.605469 30.160156 9.6875 30.074219 9.769531 C 29.816406 10.015625 29.566406 10.261719 29.335938 10.535156 C 28.878906 11.066406 28.367188 11.546875 27.871094 12.035156 C 27.207031 12.6875 27.207031 12.6875 26.585938 13.378906 C 26.257812 13.75 25.890625 14.09375 25.535156 14.441406 C 25.152344 14.824219 24.773438 15.203125 24.421875 15.613281 C 24.273438 15.789062 24.109375 15.949219 23.945312 16.109375 C 23.679688 16.375 23.425781 16.644531 23.183594 16.929688 C 23.003906 17.132812 22.808594 17.324219 22.613281 17.515625 C 22.425781 17.707031 22.25 17.90625 22.074219 18.109375 C 21.914062 18.296875 21.738281 18.46875 21.5625 18.640625 C 21.425781 18.777344 21.300781 18.917969 21.179688 19.0625 C 20.949219 19.324219 20.710938 19.570312 20.460938 19.8125 C 20.335938 19.941406 20.222656 20.074219 20.109375 20.210938 C 20.058594 20.273438 20.007812 20.335938 19.953125 20.398438 C 19.90625 20.398438 19.855469 20.398438 19.804688 20.398438 C 19.785156 20.441406 19.765625 20.484375 19.746094 20.53125 C 19.65625 20.699219 19.5625 20.800781 19.421875 20.933594 C 19.238281 21.109375 19.066406 21.292969 18.902344 21.488281 C 18.652344 21.777344 18.382812 22.042969 18.109375 22.3125 C 17.863281 22.558594 17.628906 22.816406 17.398438 23.082031 C 17.273438 23.230469 17.136719 23.367188 16.996094 23.5 C 16.730469 23.390625 16.585938 23.242188 16.398438 23.027344 C 16.152344 22.746094 15.910156 22.472656 15.65625 22.203125 C 15.386719 21.90625 15.136719 21.605469 14.898438 21.28125 C 14.78125 21.132812 14.78125 21.132812 14.640625 21 C 14.445312 20.800781 14.273438 20.578125 14.101562 20.355469 C 13.851562 20.03125 13.597656 19.710938 13.335938 19.394531 C 12.808594 18.753906 12.308594 18.089844 11.816406 17.421875 C 11.78125 17.375 11.742188 17.324219 11.707031 17.277344 C 11.453125 16.933594 11.453125 16.933594 11.453125 16.851562 C 13.449219 16.976562 15.199219 18.023438 16.851562 19.066406 C 16.882812 19.035156 16.914062 19.003906 16.949219 18.972656 C 17.101562 18.832031 17.253906 18.6875 17.402344 18.546875 C 17.457031 18.496094 17.507812 18.449219 17.558594 18.398438 C 17.90625 18.070312 18.261719 17.753906 18.625 17.441406 C 18.71875 17.359375 18.8125 17.277344 18.90625 17.195312 C 18.996094 17.117188 19.089844 17.035156 19.183594 16.957031 C 19.226562 16.917969 19.273438 16.875 19.320312 16.835938 C 19.414062 16.757812 19.503906 16.675781 19.59375 16.597656 C 19.691406 16.515625 19.785156 16.433594 19.875 16.351562 C 19.921875 16.3125 19.96875 16.269531 20.015625 16.230469 C 20.058594 16.191406 20.097656 16.15625 20.140625 16.117188 C 20.25 16.035156 20.25 16.035156 20.398438 16.035156 C 20.398438 15.988281 20.398438 15.9375 20.398438 15.890625 C 20.515625 15.777344 20.515625 15.777344 20.6875 15.644531 C 20.753906 15.589844 20.824219 15.539062 20.894531 15.484375 C 20.972656 15.421875 21.054688 15.359375 21.136719 15.296875 C 21.183594 15.261719 21.226562 15.226562 21.277344 15.191406 C 21.59375 14.945312 21.910156 14.703125 22.230469 14.460938 C 22.335938 14.382812 22.4375 14.300781 22.542969 14.222656 C 23.28125 13.65625 24.039062 13.125 24.808594 12.605469 C 24.96875 12.496094 25.128906 12.386719 25.285156 12.277344 C 25.898438 11.847656 26.523438 11.449219 27.164062 11.0625 C 27.371094 10.9375 27.574219 10.8125 27.773438 10.683594 C 28.667969 10.113281 29.59375 9.601562 30.523438 9.089844 Z M 30.523438 9.089844 "/>
<path style=" stroke:none;fill-rule:nonzero;fill:rgb(5.490196%,20.784314%,35.294119%);fill-opacity:1;" d="M 11.308594 18.625 C 11.410156 18.734375 11.410156 18.734375 11.527344 18.894531 C 11.597656 18.988281 11.597656 18.988281 11.667969 19.082031 C 11.71875 19.148438 11.769531 19.21875 11.824219 19.289062 C 11.941406 19.445312 12.0625 19.601562 12.179688 19.753906 C 12.210938 19.796875 12.242188 19.835938 12.273438 19.878906 C 12.546875 20.234375 12.832031 20.578125 13.121094 20.921875 C 13.296875 21.128906 13.46875 21.339844 13.640625 21.550781 C 13.917969 21.894531 14.210938 22.21875 14.511719 22.539062 C 14.632812 22.6875 14.632812 22.6875 14.632812 22.835938 C 14.707031 22.859375 14.777344 22.886719 14.855469 22.910156 C 14.960938 23.015625 14.960938 23.015625 15.078125 23.15625 C 15.300781 23.421875 15.53125 23.679688 15.769531 23.933594 C 15.839844 24.011719 15.910156 24.085938 15.976562 24.164062 C 16.011719 24.199219 16.046875 24.238281 16.082031 24.277344 C 16.246094 24.453125 16.40625 24.628906 16.566406 24.808594 C 16.621094 24.867188 16.675781 24.929688 16.734375 24.988281 C 16.851562 25.128906 16.851562 25.128906 16.851562 25.199219 C 15.644531 25.207031 14.441406 25.210938 13.238281 25.210938 C 12.679688 25.214844 12.121094 25.214844 11.5625 25.21875 C 11.074219 25.21875 10.585938 25.222656 10.097656 25.222656 C 9.839844 25.222656 9.582031 25.222656 9.324219 25.222656 C 9.035156 25.226562 8.75 25.226562 8.460938 25.226562 C 8.375 25.226562 8.289062 25.226562 8.203125 25.226562 C 7.574219 25.226562 7.042969 25.148438 6.578125 24.683594 C 6.171875 24.136719 6.03125 23.660156 6.058594 22.984375 C 5.339844 23.15625 4.621094 23.347656 3.90625 23.546875 C 3.828125 23.570312 3.75 23.59375 3.667969 23.613281 C 3.304688 23.71875 2.941406 23.820312 2.585938 23.945312 C 2.585938 23.894531 2.585938 23.847656 2.585938 23.796875 C 2.652344 23.761719 2.71875 23.726562 2.785156 23.6875 C 4.179688 22.914062 5.527344 22.066406 6.871094 21.210938 C 7.96875 20.511719 9.074219 19.828125 10.191406 19.160156 C 10.398438 19.035156 10.605469 18.902344 10.8125 18.769531 C 10.976562 18.675781 11.117188 18.625 11.308594 18.625 Z M 11.308594 18.625 "/>
<path style=" stroke:none;fill-rule:nonzero;fill:rgb(6.666667%,24.705882%,41.176471%);fill-opacity:1;" d="M 14.777344 6.050781 C 14.863281 6.050781 14.949219 6.046875 15.035156 6.046875 C 15.171875 6.046875 15.171875 6.046875 15.3125 6.046875 C 15.40625 6.046875 15.5 6.046875 15.597656 6.046875 C 15.796875 6.046875 15.996094 6.046875 16.195312 6.046875 C 16.453125 6.046875 16.707031 6.046875 16.960938 6.042969 C 17.203125 6.042969 17.449219 6.042969 17.695312 6.042969 C 17.785156 6.042969 17.875 6.042969 17.96875 6.042969 C 18.867188 6.042969 19.589844 6.179688 20.269531 6.804688 C 20.929688 7.503906 21.074219 8.15625 21.0625 9.089844 C 20.597656 9.089844 20.136719 9.089844 19.65625 9.089844 C 19.640625 8.964844 19.621094 8.839844 19.601562 8.710938 C 19.519531 8.261719 19.382812 7.988281 19.046875 7.675781 C 18.667969 7.433594 18.203125 7.496094 17.773438 7.5 C 17.628906 7.5 17.628906 7.5 17.480469 7.496094 C 17.277344 7.496094 17.070312 7.5 16.867188 7.5 C 16.605469 7.5 16.347656 7.5 16.085938 7.5 C 15.835938 7.496094 15.585938 7.5 15.335938 7.5 C 15.242188 7.5 15.148438 7.496094 15.050781 7.496094 C 14.414062 7.503906 14.414062 7.503906 13.894531 7.832031 C 13.839844 7.882812 13.785156 7.929688 13.726562 7.980469 C 13.523438 8.332031 13.503906 8.691406 13.449219 9.089844 C 12.988281 9.089844 12.523438 9.089844 12.046875 9.089844 C 11.992188 8.253906 12.175781 7.566406 12.71875 6.914062 C 13.308594 6.3125 13.941406 6.050781 14.777344 6.050781 Z M 14.777344 6.050781 "/>
<path style=" stroke:none;fill-rule:nonzero;fill:rgb(0.784314%,53.725493%,85.490197%);fill-opacity:1;" d="M 4.359375 15.003906 C 4.75 15.003906 5.140625 15.003906 5.542969 15.003906 C 5.566406 15.761719 5.585938 16.519531 5.597656 17.28125 C 5.601562 17.632812 5.609375 17.984375 5.621094 18.339844 C 5.632812 18.679688 5.636719 19.019531 5.640625 19.359375 C 5.644531 19.488281 5.648438 19.621094 5.652344 19.75 C 5.691406 20.738281 5.691406 20.738281 5.4375 21.035156 C 5.15625 21.28125 4.742188 21.578125 4.359375 21.578125 C 4.359375 19.410156 4.359375 17.238281 4.359375 15.003906 Z M 4.359375 15.003906 "/>
<path style=" stroke:none;fill-rule:nonzero;fill:rgb(3.137255%,54.11765%,84.313726%);fill-opacity:1;" d="M 2.511719 17.441406 C 2.902344 17.441406 3.292969 17.441406 3.695312 17.441406 C 3.714844 18.03125 3.726562 18.617188 3.738281 19.207031 C 3.742188 19.480469 3.746094 19.753906 3.757812 20.027344 C 3.765625 20.289062 3.769531 20.554688 3.773438 20.820312 C 3.773438 20.917969 3.777344 21.019531 3.78125 21.121094 C 3.792969 21.4375 3.792969 21.71875 3.695312 22.023438 C 3.453125 22.265625 3.191406 22.398438 2.882812 22.539062 C 2.761719 22.613281 2.636719 22.6875 2.511719 22.761719 C 2.511719 21.007812 2.511719 19.25 2.511719 17.441406 Z M 2.511719 17.441406 "/>
<path style=" stroke:none;fill-rule:nonzero;fill:rgb(89.803922%,89.803922%,89.803922%);fill-opacity:1;" d="M 17.117188 27.113281 C 17.175781 27.113281 17.234375 27.113281 17.292969 27.113281 C 17.898438 27.117188 18.503906 27.144531 19.109375 27.171875 C 19.59375 27.191406 20.074219 27.199219 20.558594 27.191406 C 20.742188 27.195312 20.886719 27.222656 21.0625 27.269531 C 21.183594 27.273438 21.308594 27.273438 21.433594 27.269531 C 21.191406 27.410156 21.015625 27.4375 20.742188 27.4375 C 20.660156 27.4375 20.582031 27.4375 20.5 27.4375 C 20.410156 27.4375 20.324219 27.433594 20.234375 27.433594 C 20.097656 27.433594 20.097656 27.433594 19.953125 27.433594 C 19.703125 27.433594 19.449219 27.433594 19.195312 27.433594 C 18.933594 27.433594 18.667969 27.433594 18.402344 27.433594 C 17.902344 27.429688 17.402344 27.429688 16.902344 27.429688 C 16.332031 27.425781 15.761719 27.425781 15.191406 27.425781 C 14.019531 27.425781 12.847656 27.421875 11.675781 27.417969 C 11.699219 27.371094 11.726562 27.320312 11.75 27.269531 C 12.019531 27.269531 12.285156 27.265625 12.554688 27.265625 C 12.667969 27.265625 12.667969 27.265625 12.785156 27.265625 C 12.859375 27.261719 12.929688 27.261719 13.007812 27.261719 C 13.105469 27.261719 13.105469 27.261719 13.210938 27.261719 C 13.375 27.269531 13.375 27.269531 13.523438 27.34375 C 13.523438 27.296875 13.523438 27.246094 13.523438 27.195312 C 13.582031 27.195312 13.640625 27.195312 13.699219 27.199219 C 13.96875 27.199219 14.234375 27.199219 14.503906 27.199219 C 14.640625 27.203125 14.640625 27.203125 14.78125 27.203125 C 15.285156 27.203125 15.78125 27.1875 16.28125 27.140625 C 16.5625 27.117188 16.835938 27.113281 17.117188 27.113281 Z M 17.117188 27.113281 "/>
<path style=" stroke:none;fill-rule:nonzero;fill:rgb(85.490197%,85.490197%,85.490197%);fill-opacity:1;" d="M 13.230469 26.382812 C 15.375 26.382812 17.519531 26.382812 19.730469 26.382812 C 19.707031 26.433594 19.683594 26.480469 19.65625 26.53125 C 19.5625 26.507812 19.464844 26.480469 19.363281 26.457031 C 19.363281 26.507812 19.363281 26.554688 19.363281 26.605469 C 19.191406 26.582031 19.019531 26.554688 18.84375 26.53125 C 18.84375 26.578125 18.84375 26.628906 18.84375 26.679688 C 18.417969 26.679688 17.988281 26.683594 17.558594 26.683594 C 17.414062 26.683594 17.265625 26.683594 17.121094 26.683594 C 16.910156 26.683594 16.703125 26.6875 16.492188 26.6875 C 16.425781 26.6875 16.363281 26.6875 16.292969 26.6875 C 15.832031 26.6875 15.832031 26.6875 15.667969 26.605469 C 15.542969 26.601562 15.414062 26.597656 15.289062 26.601562 C 15.222656 26.601562 15.152344 26.601562 15.085938 26.601562 C 15.007812 26.605469 15.007812 26.605469 14.929688 26.605469 C 14.929688 26.554688 14.929688 26.507812 14.929688 26.457031 C 14.390625 26.507812 13.855469 26.554688 13.300781 26.605469 C 13.277344 26.53125 13.253906 26.457031 13.230469 26.382812 Z M 13.230469 26.382812 "/>
<path style=" stroke:none;fill-rule:nonzero;fill:rgb(93.333334%,93.333334%,93.333334%);fill-opacity:1;" d="M 12.925781 26.300781 C 13.011719 26.300781 13.101562 26.300781 13.191406 26.300781 C 13.433594 26.300781 13.675781 26.300781 13.914062 26.300781 C 14.171875 26.300781 14.425781 26.300781 14.679688 26.300781 C 15.113281 26.300781 15.542969 26.300781 15.972656 26.300781 C 16.464844 26.300781 16.953125 26.300781 17.445312 26.300781 C 17.871094 26.300781 18.296875 26.300781 18.722656 26.300781 C 18.976562 26.300781 19.226562 26.300781 19.480469 26.300781 C 20.847656 26.296875 22.210938 26.328125 23.574219 26.382812 C 23.574219 26.40625 23.574219 26.433594 23.574219 26.457031 C 22.792969 26.550781 22.042969 26.542969 21.257812 26.464844 C 21.0625 26.441406 21.0625 26.441406 20.914062 26.53125 C 20.773438 26.515625 20.632812 26.496094 20.492188 26.476562 C 20.199219 26.441406 19.902344 26.445312 19.605469 26.449219 C 19.503906 26.449219 19.503906 26.449219 19.398438 26.449219 C 19.167969 26.445312 18.941406 26.445312 18.714844 26.449219 C 18.558594 26.449219 18.398438 26.449219 18.238281 26.445312 C 17.90625 26.445312 17.574219 26.449219 17.246094 26.449219 C 16.820312 26.449219 16.394531 26.449219 15.96875 26.449219 C 15.644531 26.445312 15.316406 26.445312 14.988281 26.449219 C 14.832031 26.449219 14.675781 26.449219 14.519531 26.445312 C 14.300781 26.445312 14.082031 26.449219 13.863281 26.449219 C 13.796875 26.449219 13.734375 26.449219 13.667969 26.445312 C 13.316406 26.449219 12.984375 26.472656 12.636719 26.53125 C 12.636719 26.480469 12.636719 26.433594 12.636719 26.382812 C 12.296875 26.40625 11.953125 26.433594 11.601562 26.457031 C 11.601562 26.433594 11.601562 26.410156 11.601562 26.382812 C 12.042969 26.289062 12.476562 26.300781 12.925781 26.300781 Z M 12.925781 26.300781 "/>
<path style=" stroke:none;fill-rule:nonzero;fill:rgb(7.450981%,23.921569%,40.392157%);fill-opacity:1;" d="M 24.460938 17.21875 C 24.460938 17.683594 23.910156 18.070312 23.597656 18.382812 C 23.492188 18.488281 23.386719 18.59375 23.28125 18.699219 C 23.179688 18.796875 23.082031 18.894531 22.984375 18.992188 C 22.933594 18.96875 22.886719 18.945312 22.835938 18.917969 C 22.898438 18.855469 22.960938 18.792969 23.027344 18.730469 C 23.644531 18.121094 23.644531 18.121094 24.21875 17.476562 C 24.3125 17.367188 24.3125 17.367188 24.460938 17.21875 Z M 24.460938 17.21875 "/>
<path style=" stroke:none;fill-rule:nonzero;fill:rgb(10.980392%,23.921569%,36.862746%);fill-opacity:1;" d="M 18.476562 23.574219 C 18.476562 23.84375 18.425781 23.878906 18.25 24.074219 C 18.203125 24.125 18.15625 24.175781 18.109375 24.230469 C 17.890625 24.460938 17.667969 24.683594 17.441406 24.90625 C 17.441406 24.636719 17.492188 24.601562 17.667969 24.40625 C 17.714844 24.355469 17.761719 24.304688 17.808594 24.25 C 18.027344 24.019531 18.25 23.796875 18.476562 23.574219 Z M 18.476562 23.574219 "/>
<path style=" stroke:none;fill-rule:nonzero;fill:rgb(14.901961%,26.666668%,41.960785%);fill-opacity:1;" d="M 3.398438 23.351562 C 3.425781 23.402344 3.449219 23.449219 3.472656 23.5 C 3.523438 23.5 3.570312 23.5 3.621094 23.5 C 3.621094 23.550781 3.621094 23.597656 3.621094 23.648438 C 3.503906 23.683594 3.386719 23.71875 3.269531 23.753906 C 3.171875 23.785156 3.171875 23.785156 3.074219 23.816406 C 2.910156 23.863281 2.75 23.90625 2.585938 23.945312 C 2.585938 23.894531 2.585938 23.847656 2.585938 23.796875 C 2.855469 23.652344 3.125 23.503906 3.398438 23.351562 Z M 3.398438 23.351562 "/>
<path style=" stroke:none;fill-rule:nonzero;fill:rgb(12.156863%,25.882354%,39.607844%);fill-opacity:1;" d="M 25.867188 15.742188 C 25.9375 15.765625 26.011719 15.789062 26.085938 15.816406 C 25.820312 16.082031 25.550781 16.351562 25.273438 16.628906 C 25.25 16.554688 25.226562 16.480469 25.199219 16.40625 C 25.421875 16.1875 25.640625 15.96875 25.867188 15.742188 Z M 25.867188 15.742188 "/>
<path style=" stroke:none;fill-rule:nonzero;fill:rgb(10.980392%,23.137255%,37.254903%);fill-opacity:1;" d="M 20.027344 22.097656 C 19.910156 22.386719 19.722656 22.566406 19.5 22.78125 C 19.433594 22.847656 19.367188 22.914062 19.296875 22.980469 C 19.246094 23.03125 19.195312 23.082031 19.140625 23.132812 C 19.140625 22.828125 19.304688 22.699219 19.5 22.488281 C 19.535156 22.453125 19.570312 22.414062 19.605469 22.375 C 19.859375 22.097656 19.859375 22.097656 20.027344 22.097656 Z M 20.027344 22.097656 "/>
<path style=" stroke:none;fill-rule:nonzero;fill:rgb(1.568628%,33.333334%,70.980394%);fill-opacity:1;" d="M 2.511719 20.691406 C 2.535156 20.691406 2.5625 20.691406 2.585938 20.691406 C 2.597656 20.984375 2.609375 21.273438 2.625 21.566406 C 2.628906 21.691406 2.628906 21.691406 2.632812 21.816406 C 2.636719 21.894531 2.640625 21.976562 2.644531 22.058594 C 2.648438 22.128906 2.652344 22.203125 2.652344 22.277344 C 2.660156 22.414062 2.660156 22.550781 2.660156 22.6875 C 2.613281 22.710938 2.5625 22.738281 2.511719 22.761719 C 2.511719 22.078125 2.511719 21.394531 2.511719 20.691406 Z M 2.511719 20.691406 "/>
<path style=" stroke:none;fill-rule:nonzero;fill:rgb(7.450981%,36.470589%,68.627453%);fill-opacity:1;" d="M 10.347656 17.367188 C 10.488281 17.425781 10.488281 17.425781 10.640625 17.515625 C 10.667969 17.589844 10.691406 17.660156 10.714844 17.738281 C 10.617188 17.761719 10.519531 17.785156 10.421875 17.8125 C 10.394531 17.664062 10.371094 17.519531 10.347656 17.367188 Z M 10.347656 17.367188 "/>
</g>
</svg>